<?xml version="1.0" standalone="no"?>
<!DOCTYPE svg PUBLIC "-//W3C//DTD SVG 20010904//EN"
 "http://www.w3.org/TR/2001/REC-SVG-20010904/DTD/svg10.dtd">
<svg version="1.0" xmlns="http://www.w3.org/2000/svg"
 width="512.000000pt" height="512.000000pt" viewBox="0 0 512.000000 512.000000"
 preserveAspectRatio="xMidYMid meet">
<metadata>
Created by potrace 1.14, written by Peter Selinger 2001-2017
</metadata>
<g transform="translate(0.000000,512.000000) scale(0.100000,-0.100000)"
fill="#000000" stroke="none">
<path d="M0 2560 l0 -2560 2560 0 2560 0 0 2560 0 2560 -2560 0 -2560 0 0
-2560z m1600 -126 c514 -151 944 -276 955 -276 11 0 441 124 956 276 514 152
939 276 942 276 4 0 7 -490 7 -1090 l0 -1090 -520 0 -520 0 0 215 0 215 130 0
130 0 0 511 c0 482 -1 511 -17 507 -10 -3 -174 -49 -365 -103 l-348 -99 0
-623 0 -623 -395 0 -395 0 0 623 0 623 -347 99 c-192 54 -354 100 -360 102
-10 4 -13 -101 -13 -506 l0 -511 125 0 125 0 0 -215 0 -215 -520 0 -520 0 0
1090 c0 600 4 1090 8 1090 4 0 428 -124 942 -276z"/>
</g>
</svg>
